<svg viewBox="0 0 416 530" fill="none" stroke-linecap="square" stroke-miterlimit="10" xmlns="http://www.w3.org/2000/svg">
  <clipPath id="a">
    <path d="M0 0h416v530H0z"/>
  </clipPath>
  <g clip-path="url(#a)">
    <path d="M0 0h416v530H0z"/>
    <path fill="#282828" d="M143.465 498h240v32h-240zm-112-496v528H0V2z" fill-rule="evenodd"/>
    <path fill="#282828" d="M31.465 2h352v32h-352zM238.93 322v176h-31.465V322zm176-320v528h-31.465V2zM31.465 322h64v32h-64zm112 0h64v32h-64z" fill-rule="evenodd"/>
    <path fill="#073763" d="M31.465 258h64v64h-64z" fill-rule="evenodd"/>
    <path fill="#fff" d="M48.05 286.36v-11.64h4.61q1.281 0 2.14.39.86.375 1.282 1.047t.422 1.547q0 .687-.282 1.203-.265.516-.734.844-.469.312-1.078.453v.125q.656.015 1.234.375.594.344.953.969.36.609.36 1.484 0 .906-.453 1.64-.453.72-1.344 1.141-.875.422-2.203.422zm2.376-1.969h2.062q1.047 0 1.531-.406.485-.406.485-1.062 0-.5-.235-.875t-.672-.594-1.046-.219h-2.125zm0-4.781h1.89q.5 0 .906-.187.407-.188.641-.516.234-.344.234-.813 0-.64-.453-1.03-.453-.407-1.281-.407h-1.937zm10.585 6.922q-.828 0-1.484-.297t-1.047-.875q-.375-.578-.375-1.453 0-.719.266-1.203.281-.5.734-.797.469-.297 1.063-.453.593-.156 1.234-.219.766-.078 1.219-.14.469-.079.687-.22.22-.14.22-.421v-.047q0-.375-.157-.625-.156-.266-.469-.39-.297-.141-.75-.141t-.797.14q-.328.125-.547.36-.203.218-.297.5l-2.156-.36q.235-.75.75-1.281.531-.531 1.297-.812.781-.282 1.75-.282.719 0 1.375.172.672.156 1.188.516.53.344.843.906t.313 1.36v5.89h-2.219v-1.219h-.078q-.219.406-.578.719-.344.313-.844.5-.484.172-1.14.172m.672-1.656q.547 0 .97-.22.42-.218.655-.593t.235-.828v-.953q-.11.078-.328.14-.204.063-.47.11l-.5.094q-.25.03-.437.062-.437.063-.765.203t-.516.375q-.172.219-.172.578 0 .344.172.579.172.218.469.343.297.11.687.11m10.524-7.25v1.78H67.02v-1.78zm-3.985-2.078h2.344v8.25q0 .421.188.625.187.187.609.187.14 0 .375-.031.25-.031.375-.063l.328 1.75q-.39.125-.781.172-.375.047-.734.047-1.313 0-2.016-.64-.688-.641-.688-1.844zm10.625 5.093v1.86h-5.296v-1.86zM44.289 305.36v-8.734h2.265v1.515h.094q.25-.812.813-1.219.562-.421 1.297-.421.187 0 .39.03.203.017.375.048v2.094q-.156-.047-.453-.079-.297-.03-.562-.03-.532 0-.97.233-.421.22-.671.641-.234.406-.234.953v4.969zm10.031.172q-1.312 0-2.281-.563-.953-.578-1.469-1.578-.516-1.015-.516-2.36 0-1.358.516-2.374t1.469-1.578q.969-.563 2.281-.563 1.328 0 2.281.563t1.469 1.578q.531 1.016.531 2.375 0 1.344-.531 2.36-.516 1-1.469 1.577-.953.563-2.281.563m0-1.844q.625 0 1.047-.344.422-.359.625-.953.219-.61.219-1.375t-.22-1.36q-.202-.608-.624-.952t-1.047-.344-1.047.344q-.406.344-.625.953-.203.594-.203 1.36 0 .765.203 1.374.219.594.625.953.422.344 1.047.344m9.813 1.844q-1.313 0-2.282-.563-.953-.578-1.468-1.578-.516-1.015-.516-2.36 0-1.358.516-2.374.515-1.016 1.468-1.578.969-.563 2.282-.563 1.328 0 2.28.563.954.562 1.47 1.578.53 1.016.53 2.375 0 1.344-.53 2.36-.516 1-1.47 1.577-.952.563-2.28.563m0-1.844q.625 0 1.046-.344.422-.359.625-.953.22-.61.22-1.375t-.22-1.36q-.203-.608-.625-.952-.421-.344-1.046-.344t-1.047.344q-.407.344-.625.953-.203.594-.203 1.36 0 .765.203 1.374.218.594.625.953.422.344 1.047.344m5.906 1.672v-8.734h2.172l.125 2.172h-.172q.203-.813.594-1.313.39-.516.921-.75.532-.25 1.125-.25.938 0 1.516.61.578.593.86 1.843h-.282q.203-.844.64-1.375.438-.547 1.048-.812.609-.266 1.265-.266.813 0 1.438.36.625.343.984 1.015.375.656.375 1.61v5.89h-2.344v-5.453q0-.734-.406-1.094t-.984-.36q-.438 0-.766.188t-.5.531-.172.813v5.375h-2.265v-5.516q0-.64-.391-1.015-.375-.375-.969-.375-.422 0-.75.187-.328.188-.531.547-.187.36-.187.89v5.282z"/>
    <path fill="#282828" d="M31.465 162h64v32h-64z" fill-rule="evenodd"/>
    <path fill="#073763" id="break_room" d="M31.465 178h64v144h-64z" fill-rule="evenodd"/>
    <path fill="#fff" d="M43.837 246.08v-10.656h4.235q1.172 0 1.953.36.781.343 1.172.968.39.61.39 1.406 0 .625-.25 1.094t-.687.766-.985.437v.094q.61.031 1.141.36.531.312.86.874t.328 1.36q0 .843-.422 1.515-.407.656-1.219 1.047-.813.375-2.016.375zm2.188-1.797H47.9q.969 0 1.406-.375.453-.375.453-.969 0-.453-.219-.796-.218-.36-.625-.547-.406-.203-.953-.203h-1.937zm0-4.39h1.719q.468 0 .828-.157.375-.172.578-.484.219-.313.219-.75 0-.578-.407-.938-.406-.359-1.172-.359h-1.765zm7.462 6.187v-8h2.063v1.39h.094q.218-.734.734-1.109.531-.39 1.203-.39.156 0 .344.015.187.016.344.063v1.906q-.141-.047-.422-.062-.266-.032-.516-.032-.484 0-.875.219-.39.203-.61.578-.218.375-.218.875v4.547zm9.22.156q-1.219 0-2.11-.5t-1.374-1.422q-.47-.921-.47-2.187 0-1.25.47-2.172.484-.937 1.343-1.453.86-.516 2.032-.516.78 0 1.453.25.687.25 1.203.75t.812 1.266q.297.75.297 1.781v.61H59.63v-1.344h5.67l-1 .344q0-.61-.188-1.063-.187-.469-.562-.719-.375-.265-.938-.265-.547 0-.937.265-.39.25-.594.688t-.203 1.015v.938q0 .703.234 1.172t.64.719q.423.234.985.234.375 0 .688-.11.312-.109.531-.312.219-.219.328-.531l1.953.36q-.203.671-.687 1.171-.469.484-1.188.766-.718.265-1.656.265m7.5 0q-.767 0-1.376-.265-.594-.266-.953-.797-.344-.547-.344-1.328 0-.672.25-1.125t.672-.72.953-.405q.547-.157 1.14-.203.704-.079 1.126-.141.422-.063.625-.188.203-.14.203-.39v-.047q0-.344-.156-.578-.14-.235-.422-.36t-.688-.125-.718.125-.5.344q-.188.203-.282.453l-1.968-.328q.203-.687.671-1.172.485-.484 1.204-.734.718-.266 1.593-.266.657 0 1.266.157.61.14 1.094.468.484.313.765.828.282.516.282 1.25v5.391h-2.032v-1.11h-.078q-.187.376-.515.657-.313.281-.766.453-.453.156-1.047.156m.593-1.515q.515 0 .89-.188.391-.203.594-.547.219-.343.219-.765v-.875q-.078.078-.281.14-.188.047-.422.094-.235.047-.469.078t-.406.063q-.39.047-.703.187-.297.125-.469.344-.156.203-.156.531 0 .313.156.531.156.204.422.313.281.094.625.094m7.618-.985v-2.578h.328l2.61-3.078h2.484l-3.453 4.016h-.5zm-1.937 2.344v-10.656h2.14v10.656zm4.984 0-2.406-3.5 1.437-1.531 3.5 5.031zm-35.558 18v-8h2.063v1.39h.093q.22-.734.735-1.109.531-.39 1.203-.39.156 0 .344.015.187.016.343.063v1.906q-.14-.047-.421-.062-.266-.032-.516-.032-.484 0-.875.219-.39.203-.61.578-.218.375-.218.875v4.547zm9.189.156q-1.203 0-2.094-.515-.875-.516-1.36-1.438-.468-.937-.468-2.172 0-1.234.469-2.156.484-.937 1.359-1.453.89-.516 2.094-.516t2.078.516 1.344 1.453q.484.922.484 2.156 0 1.235-.484 2.172-.47.922-1.344 1.438t-2.078.515m0-1.687q.562 0 .953-.313.39-.328.578-.875.187-.562.187-1.25 0-.718-.187-1.265-.188-.547-.578-.86t-.953-.312q-.578 0-.969.312-.375.313-.578.86-.188.547-.188 1.265 0 .688.188 1.25.203.547.578.875.39.313.969.313m8.988 1.687q-1.203 0-2.094-.515-.875-.516-1.359-1.438-.469-.937-.469-2.172 0-1.234.469-2.156.484-.937 1.36-1.453.89-.516 2.093-.516t2.078.516 1.344 1.453q.484.922.484 2.156 0 1.235-.484 2.172-.469.922-1.344 1.438t-2.078.515m0-1.687q.563 0 .953-.313.39-.328.578-.875.188-.562.188-1.25 0-.718-.188-1.265-.187-.547-.578-.86t-.953-.312q-.578 0-.969.312-.375.313-.578.86-.187.547-.187 1.265 0 .688.187 1.25.203.547.578.875.391.313.97.313m5.41 1.531v-8h1.985l.11 1.984h-.157q.187-.734.547-1.187.36-.469.844-.688.484-.234 1.03-.234.86 0 1.391.547.532.547.782 1.703h-.25q.172-.766.578-1.266t.953-.734q.562-.25 1.172-.25.734 0 1.312.328.578.313.907.922.328.61.328 1.484v5.391h-2.141v-4.984q0-.688-.375-1.016-.36-.328-.906-.328-.39 0-.688.187-.297.172-.468.485-.157.312-.157.734v4.922h-2.078v-5.047q0-.578-.344-.922-.343-.36-.89-.36-.39 0-.703.173-.297.172-.47.515-.171.329-.171.797v4.844z"/>
    <path fill="#073763" d="M143.465 186c0-35.346 28.653-64 64-64a64 64 0 0 1 64 64c0 35.346-28.654 64-64 64s-64-28.654-64-64" fill-rule="evenodd" id="work_area"/>
    <path fill="#fff" d="m182.935 180.76-4.422-16.484h3.672l1.922 8.109q.234 1.016.422 2.172.203 1.156.39 2.328l.36 2.234h-.594q.203-1.062.39-2.234l.407-2.328q.219-1.156.469-2.172l2.015-8.11h3.5l2.016 8.11q.25 1.016.453 2.172.219 1.156.422 2.328t.406 2.234h-.625q.188-1.062.375-2.234.188-1.172.39-2.328.204-1.156.423-2.172l1.906-8.11h3.703l-4.437 16.485h-3.844l-2.203-8.437q-.344-1.391-.594-3.032-.25-1.656-.563-3.375h.844q-.344 1.688-.562 3.313-.22 1.61-.61 3.093l-2.172 8.438zm24.364.25q-1.86 0-3.22-.797-1.359-.812-2.109-2.234-.734-1.438-.734-3.344 0-1.922.734-3.36.75-1.437 2.11-2.234t3.219-.797 3.218.797 2.094 2.235.734 3.359q0 1.906-.734 3.344-.734 1.422-2.094 2.234-1.36.797-3.218.797m0-2.625q.875 0 1.468-.484.61-.5.907-1.344.296-.86.296-1.938 0-1.093-.296-1.937-.297-.86-.907-1.344-.593-.484-1.468-.484-.891 0-1.485.484t-.89 1.344q-.297.844-.297 1.937 0 1.078.297 1.938.296.844.89 1.344.594.484 1.485.484m8.363 2.375v-12.375h3.203v2.172h.125q.344-1.156 1.14-1.734.813-.594 1.86-.594.25 0 .531.031.297.016.532.078v2.969q-.22-.078-.641-.125t-.797-.047q-.75 0-1.36.328-.609.328-.952.906-.329.578-.329 1.36v7.031zm12.58-3.625v-3.984h.5l4.047-4.766h3.844l-5.344 6.219h-.781zm-3 3.625v-16.484h3.313v16.484zm7.72 0-3.72-5.422 2.22-2.36 5.405 7.782zm-51.18 27 5.625-16.484h4.422l5.781 16.484h-3.75l-2.64-7.953q-.485-1.531-.985-3.36-.484-1.843-1.031-4.015h.734q-.515 2.187-.984 4.031-.453 1.844-.906 3.344l-2.547 7.953zm3.516-3.828v-2.64h8.797v2.64zm14.274 3.828v-12.375h3.203v2.172h.125q.344-1.156 1.14-1.734.813-.594 1.86-.594.25 0 .531.031.297.016.531.078v2.969q-.218-.078-.64-.125t-.797-.047q-.75 0-1.36.328-.609.328-.953.906-.328.578-.328 1.36v7.031zm14.25.25q-1.89 0-3.265-.781-1.36-.782-2.11-2.203-.734-1.422-.734-3.391 0-1.906.735-3.344.734-1.437 2.062-2.234 1.344-.813 3.156-.813 1.204 0 2.25.391 1.063.375 1.86 1.156t1.234 1.953q.453 1.172.453 2.766v.922h-10.39v-2.078h8.765l-1.547.562q0-.969-.296-1.672-.282-.718-.875-1.109-.579-.39-1.438-.39-.86 0-1.469.406-.593.39-.906 1.078-.297.672-.297 1.547v1.468q0 1.063.36 1.797.359.735 1 1.11.64.359 1.515.359.578 0 1.047-.172.484-.172.813-.484.343-.328.53-.813l3 .563q-.296 1.015-1.046 1.797-.734.765-1.844 1.187t-2.562.422m11.594 0q-1.188 0-2.125-.422-.922-.422-1.47-1.234-.53-.828-.53-2.063 0-1.015.375-1.719.39-.703 1.046-1.109.657-.422 1.485-.64.844-.235 1.765-.313 1.079-.125 1.735-.219t.953-.297q.312-.203.312-.593v-.063q0-.531-.234-.89-.219-.376-.656-.563-.422-.187-1.047-.187-.64 0-1.125.187-.469.188-.766.516t-.437.718l-3.047-.515q.312-1.063 1.047-1.813.75-.75 1.844-1.14 1.109-.407 2.484-.407 1 0 1.937.235.954.234 1.688.734.75.5 1.187 1.297t.438 1.922v8.328h-3.14v-1.719h-.11q-.297.578-.797 1.016-.5.437-1.203.703-.703.25-1.61.25m.937-2.344q.781 0 1.375-.297.594-.312.922-.843.328-.532.328-1.188v-1.344q-.14.11-.437.203t-.672.157l-.72.125q-.343.047-.624.078-.61.094-1.078.297-.453.187-.719.515-.25.328-.25.844 0 .469.234.797.25.328.657.5.422.156.984.156"/>
    <path fill="#073763" d="M31.465 354h176v144h-176z" fill-rule="evenodd" id="front"/>
    <path fill="#fff" d="M92.053 420.76v-16.484h10.828v2.796h-7.453v4.61h6.734v2.75h-6.734v6.328zm12.776 0v-12.375h3.203v2.172h.125q.344-1.156 1.14-1.735.813-.593 1.86-.593.25 0 .531.031.297.016.532.078v2.969q-.219-.078-.64-.125-.423-.047-.798-.047-.75 0-1.36.328-.609.328-.952.906-.328.578-.328 1.36v7.031zm14.204.25q-1.86 0-3.219-.797-1.359-.812-2.109-2.234-.734-1.438-.734-3.344 0-1.922.734-3.36.75-1.437 2.11-2.234t3.218-.797 3.219.797 2.094 2.235.734 3.359q0 1.906-.734 3.344-.735 1.422-2.094 2.234-1.36.797-3.219.797m0-2.625q.875 0 1.469-.484.61-.5.906-1.344.297-.86.297-1.938 0-1.093-.297-1.937-.297-.86-.906-1.344-.594-.484-1.469-.484-.89 0-1.484.484t-.89 1.344q-.298.844-.298 1.937 0 1.078.297 1.938.297.844.89 1.344.595.484 1.485.484m11.676-4.781v7.156h-3.312v-12.375h3.125l.062 3.094h-.203q.484-1.547 1.469-2.39 1-.845 2.562-.845 1.281 0 2.235.563.953.547 1.484 1.594.531 1.046.531 2.5v7.859h-3.312v-7.297q0-1.14-.594-1.797-.594-.656-1.64-.656-.704 0-1.25.313-.548.296-.86.875-.297.578-.297 1.406m16.933-5.219v2.547h-7.344v-2.547zm-5.64-2.937h3.328v11.687q0 .594.25.875.265.281.875.281.187 0 .53-.047.345-.047.516-.093l.485 2.484q-.563.172-1.11.234-.546.063-1.046.063-1.86 0-2.844-.906-.985-.907-.985-2.594zm-70.62 42.312v-16.484h11.016v2.796h-7.641v3.985h7.062v2.75h-7.062v4.156h7.672v2.797zm16.996-7.156v7.156h-3.312v-12.375h3.125l.062 3.094h-.203q.484-1.547 1.469-2.39 1-.845 2.562-.845 1.282 0 2.235.563.953.547 1.484 1.594.531 1.046.531 2.5v7.859H93.02v-7.297q0-1.14-.594-1.797-.594-.656-1.64-.656-.704 0-1.25.313-.547.296-.86.875-.297.578-.297 1.406m16.933-5.219v2.547h-7.344v-2.547zm-5.64-2.937H103v11.687q0 .594.25.875.265.281.875.281.187 0 .531-.047t.516-.093l.484 2.484q-.563.172-1.11.234-.546.063-1.046.063-1.86 0-2.844-.906-.984-.907-.984-2.594zm7.797 15.312v-12.375h3.203v2.172h.125q.343-1.156 1.14-1.735.813-.593 1.86-.593.25 0 .53.031.298.016.532.078v2.969q-.219-.078-.64-.125t-.797-.047q-.75 0-1.36.328t-.953.906q-.328.578-.328 1.36v7.031zm12.369.25q-1.187 0-2.125-.422-.922-.422-1.469-1.234-.531-.828-.531-2.063 0-1.015.375-1.719.39-.703 1.047-1.109.656-.422 1.484-.64.844-.235 1.766-.313 1.078-.125 1.734-.219.657-.094.953-.297.313-.203.313-.593v-.063q0-.531-.234-.89-.22-.375-.657-.563-.422-.187-1.047-.187-.64 0-1.125.187-.468.188-.765.516t-.438.718l-3.047-.515q.313-1.063 1.047-1.813.75-.75 1.844-1.14 1.11-.407 2.484-.407 1 0 1.938.235.953.234 1.687.734.75.5 1.188 1.297t.437 1.922v8.328h-3.14v-1.719h-.11q-.296.578-.796 1.016-.5.437-1.204.703-.703.25-1.609.25m.938-2.344q.78 0 1.375-.297.593-.312.921-.843.329-.532.329-1.188v-1.344q-.141.11-.438.203t-.672.157l-.719.125q-.343.047-.625.078-.609.094-1.078.297-.453.187-.718.515-.25.328-.25.844 0 .469.234.797.25.328.656.5.422.156.985.156m12.075-5.062v7.156h-3.313v-12.375h3.125l.063 3.094h-.203q.484-1.547 1.468-2.39 1-.845 2.563-.845 1.281 0 2.234.563.953.547 1.485 1.594.531 1.046.531 2.5v7.859h-3.313v-7.297q0-1.14-.593-1.797-.594-.656-1.64-.656-.704 0-1.25.313-.548.296-.86.875-.297.578-.297 1.406m16.323 7.406q-1.875 0-3.234-.797-1.344-.812-2.094-2.234-.734-1.438-.734-3.344 0-1.922.734-3.36.75-1.437 2.094-2.234 1.36-.797 3.234-.797 1.094 0 2.016.282.938.28 1.656.812.72.531 1.172 1.297.469.766.656 1.719l-3.093.578q-.094-.485-.313-.86-.203-.39-.515-.656-.297-.281-.688-.422t-.86-.14q-.89 0-1.5.484-.593.469-.906 1.328-.296.844-.296 1.953 0 1.11.296 1.953.313.844.907 1.329.61.484 1.5.484.468 0 .86-.14.405-.157.718-.438t.515-.672q.22-.406.297-.906l3.094.578q-.172.984-.64 1.75-.47.765-1.188 1.328-.719.547-1.656.844-.938.281-2.032.281m13.378 0q-1.89 0-3.266-.781-1.36-.781-2.11-2.203-.734-1.422-.734-3.391 0-1.906.735-3.344.734-1.437 2.062-2.234 1.344-.813 3.157-.813 1.203 0 2.25.391 1.062.375 1.859 1.156t1.234 1.953q.453 1.172.453 2.766v.922h-10.39v-2.078h8.765l-1.546.562q0-.969-.297-1.672-.282-.718-.875-1.109-.578-.39-1.438-.39t-1.469.406q-.593.39-.906 1.078-.297.672-.297 1.547v1.468q0 1.063.36 1.797.359.735 1 1.11.64.359 1.515.359.578 0 1.047-.172.485-.172.813-.484.343-.328.53-.813l3 .563q-.296 1.015-1.046 1.797-.734.765-1.844 1.187t-2.562.422"/>
    <path fill="#282828" d="M31.465 498h64v32h-64zm136-232h80v24h-80zm-104-180h80v24h-80zm208 0h80v24h-80zm0 348h80v24h-80zm0-136h80v24h-80z" fill-rule="evenodd"/>
  </g>
</svg>
