<svg viewBox="0 0 416 530" fill="none" stroke-linecap="square" stroke-miterlimit="10" xmlns="http://www.w3.org/2000/svg">
  <clipPath id="a">
    <path d="M0 0h416v530H0z"/>
  </clipPath>
  <g clip-path="url(#a)">
    <path d="M0 0h416v530H0z"/>
    <path fill="#282828" d="M143.465 498h240v32h-240zm-112-496v528H0V2z" fill-rule="evenodd"/>
    <path fill="#282828" d="M31.465 2h352v32h-352zM238.93 322v176h-31.465V322zm176-320v528h-31.465V2zM31.465 322h64v32h-64zm112 0h64v32h-64z" fill-rule="evenodd"/>
    <path fill="#282828" d="M31.465 162h64v32h-64z" fill-rule="evenodd"/>
    <path fill="#073763" id="break_room" d="M31.465 178h64v144h-64z" fill-rule="evenodd"/>
    <path fill="#fff" pointer-events="none" d="M43.837 246.08v-10.656h4.235q1.172 0 1.953.36.781.343 1.172.968.39.61.39 1.406 0 .625-.25 1.094t-.687.766-.985.437v.094q.61.031 1.141.36.531.312.86.874t.328 1.36q0 .843-.422 1.515-.407.656-1.219 1.047-.813.375-2.016.375zm2.188-1.797H47.9q.969 0 1.406-.375.453-.375.453-.969 0-.453-.219-.796-.218-.36-.625-.547-.406-.203-.953-.203h-1.937zm0-4.39h1.719q.468 0 .828-.157.375-.172.578-.484.219-.313.219-.75 0-.578-.407-.938-.406-.359-1.172-.359h-1.765zm7.462 6.187v-8h2.063v1.39h.094q.218-.734.734-1.109.531-.39 1.203-.39.156 0 .344.015.187.016.344.063v1.906q-.141-.047-.422-.062-.266-.032-.516-.032-.484 0-.875.219-.39.203-.61.578-.218.375-.218.875v4.547zm9.22.156q-1.219 0-2.11-.5t-1.374-1.422q-.47-.921-.47-2.187 0-1.25.47-2.172.484-.937 1.343-1.453.86-.516 2.032-.516.78 0 1.453.25.687.25 1.203.75t.812 1.266q.297.75.297 1.781v.61H59.63v-1.344h5.67l-1 .344q0-.61-.188-1.063-.187-.469-.562-.719-.375-.265-.938-.265-.547 0-.937.265-.39.25-.594.688t-.203 1.015v.938q0 .703.234 1.172t.64.719q.423.234.985.234.375 0 .688-.11.312-.109.531-.312.219-.219.328-.531l1.953.36q-.203.671-.687 1.171-.469.484-1.188.766-.718.265-1.656.265m7.5 0q-.767 0-1.376-.265-.594-.266-.953-.797-.344-.547-.344-1.328 0-.672.25-1.125t.672-.72.953-.405q.547-.157 1.14-.203.704-.079 1.126-.141.422-.063.625-.188.203-.14.203-.39v-.047q0-.344-.156-.578-.14-.235-.422-.36t-.688-.125-.718.125-.5.344q-.188.203-.282.453l-1.968-.328q.203-.687.671-1.172.485-.484 1.204-.734.718-.266 1.593-.266.657 0 1.266.157.61.14 1.094.468.484.313.765.828.282.516.282 1.25v5.391h-2.032v-1.11h-.078q-.187.376-.515.657-.313.281-.766.453-.453.156-1.047.156m.593-1.515q.515 0 .89-.188.391-.203.594-.547.219-.343.219-.765v-.875q-.078.078-.281.14-.188.047-.422.094-.235.047-.469.078t-.406.063q-.39.047-.703.187-.297.125-.469.344-.156.203-.156.531 0 .313.156.531.156.204.422.313.281.094.625.094m7.618-.985v-2.578h.328l2.61-3.078h2.484l-3.453 4.016h-.5zm-1.937 2.344v-10.656h2.14v10.656zm4.984 0-2.406-3.5 1.437-1.531 3.5 5.031zm-35.558 18v-8h2.063v1.39h.093q.22-.734.735-1.109.531-.39 1.203-.39.156 0 .344.015.187.016.343.063v1.906q-.14-.047-.421-.062-.266-.032-.516-.032-.484 0-.875.219-.39.203-.61.578-.218.375-.218.875v4.547zm9.189.156q-1.203 0-2.094-.515-.875-.516-1.36-1.438-.468-.937-.468-2.172 0-1.234.469-2.156.484-.937 1.359-1.453.89-.516 2.094-.516t2.078.516 1.344 1.453q.484.922.484 2.156 0 1.235-.484 2.172-.47.922-1.344 1.438t-2.078.515m0-1.687q.562 0 .953-.313.39-.328.578-.875.187-.562.187-1.25 0-.718-.187-1.265-.188-.547-.578-.86t-.953-.312q-.578 0-.969.312-.375.313-.578.86-.188.547-.188 1.265 0 .688.188 1.25.203.547.578.875.39.313.969.313m8.988 1.687q-1.203 0-2.094-.515-.875-.516-1.359-1.438-.469-.937-.469-2.172 0-1.234.469-2.156.484-.937 1.36-1.453.89-.516 2.093-.516t2.078.516 1.344 1.453q.484.922.484 2.156 0 1.235-.484 2.172-.469.922-1.344 1.438t-2.078.515m0-1.687q.563 0 .953-.313.39-.328.578-.875.188-.562.188-1.25 0-.718-.188-1.265-.187-.547-.578-.86t-.953-.312q-.578 0-.969.312-.375.313-.578.86-.187.547-.187 1.265 0 .688.187 1.25.203.547.578.875.391.313.97.313m5.41 1.531v-8h1.985l.11 1.984h-.157q.187-.734.547-1.187.36-.469.844-.688.484-.234 1.03-.234.86 0 1.391.547.532.547.782 1.703h-.25q.172-.766.578-1.266t.953-.734q.562-.25 1.172-.25.734 0 1.312.328.578.313.907.922.328.61.328 1.484v5.391h-2.141v-4.984q0-.688-.375-1.016-.36-.328-.906-.328-.39 0-.688.187-.297.172-.468.485-.157.312-.157.734v4.922h-2.078v-5.047q0-.578-.344-.922-.343-.36-.89-.36-.39 0-.703.173-.297.172-.47.515-.171.329-.171.797v4.844z"/>
    <path fill="#073763" d="M143.465 186c0-35.346 28.653-64 64-64a64 64 0 0 1 64 64c0 35.346-28.654 64-64 64s-64-28.654-64-64" fill-rule="evenodd" id="work_area"/>
    <path fill="#fff" pointer-events="none" d="m182.935 180.76-4.422-16.484h3.672l1.922 8.109q.234 1.016.422 2.172.203 1.156.39 2.328l.36 2.234h-.594q.203-1.062.39-2.234l.407-2.328q.219-1.156.469-2.172l2.015-8.11h3.5l2.016 8.11q.25 1.016.453 2.172.219 1.156.422 2.328t.406 2.234h-.625q.188-1.062.375-2.234.188-1.172.39-2.328.204-1.156.423-2.172l1.906-8.11h3.703l-4.437 16.485h-3.844l-2.203-8.437q-.344-1.391-.594-3.032-.25-1.656-.563-3.375h.844q-.344 1.688-.562 3.313-.22 1.61-.61 3.093l-2.172 8.438zm24.364.25q-1.86 0-3.22-.797-1.359-.812-2.109-2.234-.734-1.438-.734-3.344 0-1.922.734-3.36.75-1.437 2.11-2.234t3.219-.797 3.218.797 2.094 2.235.734 3.359q0 1.906-.734 3.344-.734 1.422-2.094 2.234-1.36.797-3.218.797m0-2.625q.875 0 1.468-.484.61-.5.907-1.344.296-.86.296-1.938 0-1.093-.296-1.937-.297-.86-.907-1.344-.593-.484-1.468-.484-.891 0-1.485.484t-.89 1.344q-.297.844-.297 1.937 0 1.078.297 1.938.296.844.89 1.344.594.484 1.485.484m8.363 2.375v-12.375h3.203v2.172h.125q.344-1.156 1.14-1.734.813-.594 1.86-.594.25 0 .531.031.297.016.532.078v2.969q-.22-.078-.641-.125t-.797-.047q-.75 0-1.36.328-.609.328-.952.906-.329.578-.329 1.36v7.031zm12.58-3.625v-3.984h.5l4.047-4.766h3.844l-5.344 6.219h-.781zm-3 3.625v-16.484h3.313v16.484zm7.72 0-3.72-5.422 2.22-2.36 5.405 7.782zm-51.18 27 5.625-16.484h4.422l5.781 16.484h-3.75l-2.64-7.953q-.485-1.531-.985-3.36-.484-1.843-1.031-4.015h.734q-.515 2.187-.984 4.031-.453 1.844-.906 3.344l-2.547 7.953zm3.516-3.828v-2.64h8.797v2.64zm14.274 3.828v-12.375h3.203v2.172h.125q.344-1.156 1.14-1.734.813-.594 1.86-.594.25 0 .531.031.297.016.531.078v2.969q-.218-.078-.64-.125t-.797-.047q-.75 0-1.36.328-.609.328-.953.906-.328.578-.328 1.36v7.031zm14.25.25q-1.89 0-3.265-.781-1.36-.782-2.11-2.203-.734-1.422-.734-3.391 0-1.906.735-3.344.734-1.437 2.062-2.234 1.344-.813 3.156-.813 1.204 0 2.25.391 1.063.375 1.86 1.156t1.234 1.953q.453 1.172.453 2.766v.922h-10.39v-2.078h8.765l-1.547.562q0-.969-.296-1.672-.282-.718-.875-1.109-.579-.39-1.438-.39-.86 0-1.469.406-.593.39-.906 1.078-.297.672-.297 1.547v1.468q0 1.063.36 1.797.359.735 1 1.11.64.359 1.515.359.578 0 1.047-.172.484-.172.813-.484.343-.328.53-.813l3 .563q-.296 1.015-1.046 1.797-.734.765-1.844 1.187t-2.562.422m11.594 0q-1.188 0-2.125-.422-.922-.422-1.47-1.234-.53-.828-.53-2.063 0-1.015.375-1.719.39-.703 1.046-1.109.657-.422 1.485-.64.844-.235 1.765-.313 1.079-.125 1.735-.219t.953-.297q.312-.203.312-.593v-.063q0-.531-.234-.89-.219-.376-.656-.563-.422-.187-1.047-.187-.64 0-1.125.187-.469.188-.766.516t-.437.718l-3.047-.515q.312-1.063 1.047-1.813.75-.75 1.844-1.14 1.109-.407 2.484-.407 1 0 1.937.235.954.234 1.688.734.75.5 1.187 1.297t.438 1.922v8.328h-3.14v-1.719h-.11q-.297.578-.797 1.016-.5.437-1.203.703-.703.25-1.61.25m.937-2.344q.781 0 1.375-.297.594-.312.922-.843.328-.532.328-1.188v-1.344q-.14.11-.437.203t-.672.157l-.72.125q-.343.047-.624.078-.61.094-1.078.297-.453.187-.719.515-.25.328-.25.844 0 .469.234.797.25.328.657.5.422.156.984.156"/>
    <path fill="#073763" d="M31.465 354h176v144h-176z" fill-rule="evenodd" id="front"/>
    <path fill="#fff" pointer-events="none" d="M92.053 420.76v-16.484h10.828v2.796h-7.453v4.61h6.734v2.75h-6.734v6.328zm12.776 0v-12.375h3.203v2.172h.125q.344-1.156 1.14-1.735.813-.593 1.86-.593.25 0 .531.031.297.016.532.078v2.969q-.219-.078-.64-.125-.423-.047-.798-.047-.75 0-1.36.328-.609.328-.952.906-.328.578-.328 1.36v7.031zm14.204.25q-1.86 0-3.219-.797-1.359-.812-2.109-2.234-.734-1.438-.734-3.344 0-1.922.734-3.36.75-1.437 2.11-2.234t3.218-.797 3.219.797 2.094 2.235.734 3.359q0 1.906-.734 3.344-.735 1.422-2.094 2.234-1.36.797-3.219.797m0-2.625q.875 0 1.469-.484.61-.5.906-1.344.297-.86.297-1.938 0-1.093-.297-1.937-.297-.86-.906-1.344-.594-.484-1.469-.484-.89 0-1.484.484t-.89 1.344q-.298.844-.298 1.937 0 1.078.297 1.938.297.844.89 1.344.595.484 1.485.484m11.676-4.781v7.156h-3.312v-12.375h3.125l.062 3.094h-.203q.484-1.547 1.469-2.39 1-.845 2.562-.845 1.281 0 2.235.563.953.547 1.484 1.594.531 1.046.531 2.5v7.859h-3.312v-7.297q0-1.14-.594-1.797-.594-.656-1.64-.656-.704 0-1.25.313-.548.296-.86.875-.297.578-.297 1.406m16.933-5.219v2.547h-7.344v-2.547zm-5.64-2.937h3.328v11.687q0 .594.25.875.265.281.875.281.187 0 .53-.047.345-.047.516-.093l.485 2.484q-.563.172-1.11.234-.546.063-1.046.063-1.86 0-2.844-.906-.985-.907-.985-2.594zm-70.62 42.312v-16.484h11.016v2.796h-7.641v3.985h7.062v2.75h-7.062v4.156h7.672v2.797zm16.996-7.156v7.156h-3.312v-12.375h3.125l.062 3.094h-.203q.484-1.547 1.469-2.39 1-.845 2.562-.845 1.282 0 2.235.563.953.547 1.484 1.594.531 1.046.531 2.5v7.859H93.02v-7.297q0-1.14-.594-1.797-.594-.656-1.64-.656-.704 0-1.25.313-.547.296-.86.875-.297.578-.297 1.406m16.933-5.219v2.547h-7.344v-2.547zm-5.64-2.937H103v11.687q0 .594.25.875.265.281.875.281.187 0 .531-.047t.516-.093l.484 2.484q-.563.172-1.11.234-.546.063-1.046.063-1.86 0-2.844-.906-.984-.907-.984-2.594zm7.797 15.312v-12.375h3.203v2.172h.125q.343-1.156 1.14-1.735.813-.593 1.86-.593.25 0 .53.031.298.016.532.078v2.969q-.219-.078-.64-.125t-.797-.047q-.75 0-1.36.328t-.953.906q-.328.578-.328 1.36v7.031zm12.369.25q-1.187 0-2.125-.422-.922-.422-1.469-1.234-.531-.828-.531-2.063 0-1.015.375-1.719.39-.703 1.047-1.109.656-.422 1.484-.64.844-.235 1.766-.313 1.078-.125 1.734-.219.657-.094.953-.297.313-.203.313-.593v-.063q0-.531-.234-.89-.22-.375-.657-.563-.422-.187-1.047-.187-.64 0-1.125.187-.468.188-.765.516t-.438.718l-3.047-.515q.313-1.063 1.047-1.813.75-.75 1.844-1.14 1.11-.407 2.484-.407 1 0 1.938.235.953.234 1.687.734.75.5 1.188 1.297t.437 1.922v8.328h-3.14v-1.719h-.11q-.296.578-.796 1.016-.5.437-1.204.703-.703.25-1.609.25m.938-2.344q.78 0 1.375-.297.593-.312.921-.843.329-.532.329-1.188v-1.344q-.141.11-.438.203t-.672.157l-.719.125q-.343.047-.625.078-.609.094-1.078.297-.453.187-.718.515-.25.328-.25.844 0 .469.234.797.25.328.656.5.422.156.985.156m12.075-5.062v7.156h-3.313v-12.375h3.125l.063 3.094h-.203q.484-1.547 1.468-2.39 1-.845 2.563-.845 1.281 0 2.234.563.953.547 1.485 1.594.531 1.046.531 2.5v7.859h-3.313v-7.297q0-1.14-.593-1.797-.594-.656-1.64-.656-.704 0-1.25.313-.548.296-.86.875-.297.578-.297 1.406m16.323 7.406q-1.875 0-3.234-.797-1.344-.812-2.094-2.234-.734-1.438-.734-3.344 0-1.922.734-3.36.75-1.437 2.094-2.234 1.36-.797 3.234-.797 1.094 0 2.016.282.938.28 1.656.812.72.531 1.172 1.297.469.766.656 1.719l-3.093.578q-.094-.485-.313-.86-.203-.39-.515-.656-.297-.281-.688-.422t-.86-.14q-.89 0-1.5.484-.593.469-.906 1.328-.296.844-.296 1.953 0 1.11.296 1.953.313.844.907 1.329.61.484 1.5.484.468 0 .86-.14.405-.157.718-.438t.515-.672q.22-.406.297-.906l3.094.578q-.172.984-.64 1.75-.47.765-1.188 1.328-.719.547-1.656.844-.938.281-2.032.281m13.378 0q-1.89 0-3.266-.781-1.36-.781-2.11-2.203-.734-1.422-.734-3.391 0-1.906.735-3.344.734-1.437 2.062-2.234 1.344-.813 3.157-.813 1.203 0 2.25.391 1.062.375 1.859 1.156t1.234 1.953q.453 1.172.453 2.766v.922h-10.39v-2.078h8.765l-1.546.562q0-.969-.297-1.672-.282-.718-.875-1.109-.578-.39-1.438-.39t-1.469.406q-.593.39-.906 1.078-.297.672-.297 1.547v1.468q0 1.063.36 1.797.359.735 1 1.11.64.359 1.515.359.578 0 1.047-.172.485-.172.813-.484.343-.328.53-.813l3 .563q-.296 1.015-1.046 1.797-.734.765-1.844 1.187t-2.562.422"/>
    <path fill="#282828" d="M31.465 498h64v32h-64zm136-232h80v24h-80zm-104-180h80v24h-80zm208 0h80v24h-80zm0 348h80v24h-80zm0-136h80v24h-80z" fill-rule="evenodd"/>
  </g>
</svg>
