<svg viewBox="0 0 912.17 521.74" fill="none" stroke-linecap="square" stroke-miterlimit="10" xmlns="http://www.w3.org/2000/svg">
  <clipPath id="a">
    <path d="M0 0h912.17v521.74H0z"/>
  </clipPath>
  <g clip-path="url(#a)">
    <path d="M0 0h912.17v521.74H0z"/>
    <path id="kitchen" fill="#a4c2f4" d="M479.77 50.64h181.8v162.77h-181.8z" fill-rule="evenodd"/>
    <path fill="#fff" pointer-events="none" d="M529.49 136.62v-3.25q.54-.99 1.06-1.8.51-.83 1.12-1.64.63-.83 1.43-1.81l4.28-5.02h4.37l-7.37 8.53-.3-.1-4.6 5.09zm-2.64 3.95V123.1h3.57v4.78l-.06 4.45.06 1.74v6.5zm10.85 0-5.18-7.88 2.26-2.67 7.16 10.55zm6.5 0v-13.11h3.52v13.1h-3.52zm1.77-14.81q-.8 0-1.36-.53-.56-.54-.56-1.29t.56-1.26q.56-.53 1.36-.53t1.36.53q.56.51.56 1.26t-.56 1.29q-.56.53-1.36.53m11.24 1.7v2.69h-7.77v-2.7h7.77zm-5.95-3.11h3.51v12.4q0 .6.27.91.28.3.92.3.2 0 .56-.05l.55-.1.51 2.63q-.59.18-1.17.24-.58.08-1.1.08-1.98 0-3.02-.96-1.03-.97-1.03-2.76zm13.86 16.48q-1.98 0-3.42-.84-1.42-.86-2.2-2.37-.78-1.54-.78-3.55 0-2.03.78-3.55.78-1.51 2.2-2.36 1.44-.86 3.42-.86 1.16 0 2.14.32.99.3 1.75.86.77.56 1.25 1.37.5.8.7 1.81l-3.28.61q-.1-.51-.34-.92-.22-.4-.53-.69-.31-.3-.73-.43-.41-.16-.93-.16-.93 0-1.57.5-.63.5-.96 1.4-.33.91-.33 2.1 0 1.17.33 2.06.33.9.96 1.4.64.52 1.57.52.52 0 .94-.15.42-.16.75-.46t.55-.71q.22-.43.31-.96l3.27.6q-.2 1.04-.7 1.86-.48.8-1.24 1.4-.75.58-1.75.9-.99.3-2.16.3M576.9 133v7.58h-3.52V123.1h3.46v7.64h-.28q.51-1.64 1.56-2.53 1.05-.9 2.7-.9 1.36 0 2.38.59 1.01.6 1.56 1.7.56 1.1.56 2.64v8.33h-3.51v-7.72q0-1.22-.63-1.9-.62-.7-1.73-.7-.74 0-1.33.32-.58.31-.9.92t-.32 1.5zm17.35 7.84q-2 0-3.46-.82-1.45-.83-2.23-2.33-.78-1.52-.78-3.6 0-2.03.76-3.54.79-1.53 2.2-2.38 1.41-.86 3.34-.86 1.28 0 2.39.4 1.12.42 1.96 1.24.85.83 1.32 2.08.47 1.24.47 2.92v.99h-11v-2.2h9.28l-1.64.59q0-1.03-.32-1.78-.3-.75-.92-1.17-.6-.43-1.53-.43-.9 0-1.55.43-.62.42-.95 1.15-.33.72-.33 1.64v1.57q0 1.12.38 1.9.37.77 1.06 1.16t1.61.39q.6 0 1.1-.17.52-.2.88-.53.36-.35.55-.85l3.19.6q-.33 1.07-1.11 1.89-.78.8-1.97 1.26-1.17.45-2.7.45m11.89-7.84v7.58h-3.52v-13.11h3.31l.07 3.28h-.2q.51-1.64 1.56-2.53 1.04-.9 2.7-.9 1.36 0 2.36.59 1.01.6 1.58 1.7.56 1.1.56 2.64v8.33h-3.52v-7.72q0-1.22-.62-1.9-.63-.7-1.74-.7-.73 0-1.32.32-.58.31-.9.92t-.32 1.5"/>
    <path fill="#6d9eeb" id="living_room" d="M298.68 119.54h129.74V260.8H298.68z" fill-rule="evenodd"/>
    <path fill="#fff" pointer-events="none" d="M329.6 184.2v-17.46h3.57v14.5h7.53v2.97h-11.1zm13.48 0v-13.1h3.52v13.1zm1.77-14.8q-.8 0-1.36-.54-.56-.53-.56-1.28t.56-1.27q.56-.53 1.36-.53t1.36.53q.56.52.56 1.27t-.56 1.28-1.36.53zm8.42 14.8-4.82-13.1h3.75l2.2 6.8q.39 1.27.69 2.59l.62 2.68h-.75q.3-1.39.6-2.68.3-1.32.68-2.6l2.2-6.8h3.68l-4.85 13.12h-4zm10.7 0v-13.1h3.52v13.1h-3.51zm1.77-14.8q-.8 0-1.36-.54-.56-.53-.56-1.28t.56-1.27q.57-.53 1.36-.53.8 0 1.36.53.57.52.57 1.27t-.57 1.28q-.56.53-1.36.53zm8.26 7.23v7.58h-3.52V171.1h3.31l.07 3.28h-.2q.5-1.64 1.56-2.53 1.04-.91 2.7-.91 1.36 0 2.36.6 1.01.59 1.58 1.7.56 1.09.56 2.64v8.33h-3.52v-7.72q0-1.22-.62-1.91-.63-.7-1.74-.7-.73 0-1.32.33-.58.3-.91.92-.31.6-.31 1.5m17.24 12.76q-1.63 0-2.85-.42t-1.98-1.16q-.77-.71-1.05-1.64l3.02-.84q.17.36.51.7.35.36.9.58.59.22 1.43.22 1.36 0 2.12-.62.77-.61.77-1.91v-2.42h-.27q-.23.53-.68 1.03-.44.48-1.17.8-.72.3-1.79.3-1.46 0-2.68-.68-1.2-.7-1.93-2.1-.71-1.43-.71-3.6 0-2.22.73-3.7.73-1.49 1.94-2.24 1.22-.75 2.67-.75 1.1 0 1.84.37.75.36 1.22.93.47.54.7 1.06h.15v-2.2h3.46v13q0 1.78-.82 2.95t-2.25 1.75q-1.43.6-3.28.6zm.07-8.04q.9 0 1.52-.44.64-.45.97-1.28.33-.85.33-2.02t-.33-2.03q-.33-.87-.97-1.34-.63-.49-1.52-.49-.93 0-1.56.5-.62.5-.95 1.38-.31.86-.31 1.98 0 1.14.3 1.99.34.82.96 1.3.64.45 1.56.45m-59.59 31.85v-17.46h6.82q2 0 3.39.7t2.12 1.98q.74 1.29.74 3 0 1.72-.75 2.97-.74 1.25-2.16 1.92-1.4.66-3.42.66h-4.63v-2.89h4.05q1.1 0 1.81-.3.7-.3 1.05-.89.36-.6.36-1.47 0-.89-.36-1.48-.34-.61-1.06-.92-.7-.33-1.82-.33h-2.56v14.52h-3.58zm9.72 0-4.25-7.95h3.88l4.34 7.96h-3.97zm11.53.27q-1.97 0-3.4-.84-1.44-.86-2.22-2.38-.78-1.53-.78-3.54 0-2.04.78-3.55.78-1.52 2.22-2.36 1.43-.86 3.4-.86 1.99 0 3.43.86 1.43.84 2.2 2.36.78 1.51.78 3.55 0 2.01-.78 3.54-.77 1.52-2.2 2.38-1.44.84-3.43.84m0-2.78q.94 0 1.57-.52.64-.51.95-1.42.33-.92.33-2.04 0-1.18-.33-2.07-.31-.9-.95-1.42-.63-.51-1.57-.51-.93 0-1.56.51-.62.52-.95 1.42-.31.9-.31 2.07 0 1.12.3 2.04.34.9.96 1.42.63.52 1.56.52m14.72 2.78q-1.97 0-3.4-.84-1.44-.86-2.22-2.38-.78-1.53-.78-3.54 0-2.04.78-3.55.78-1.52 2.22-2.36 1.43-.86 3.4-.86 1.99 0 3.42.86 1.44.84 2.2 2.36.79 1.51.79 3.55 0 2.01-.78 3.54-.77 1.52-2.2 2.38-1.44.84-3.43.84m0-2.78q.94 0 1.56-.52.65-.51.96-1.42.33-.92.33-2.04 0-1.18-.33-2.07-.31-.9-.96-1.42-.62-.51-1.56-.51t-1.56.51q-.63.52-.95 1.42t-.32 2.07q0 1.12.32 2.04.32.9.95 1.42.62.52 1.56.52m8.86 2.52V200.1h3.27l.17 3.26h-.27q.32-1.2.91-1.97.6-.76 1.4-1.12.79-.36 1.66-.36 1.42 0 2.28.89.88.89 1.28 2.76h-.4q.28-1.25.94-2.06.67-.81 1.57-1.2.91-.4 1.91-.4 1.2 0 2.14.54.95.52 1.5 1.52.55.98.55 2.4v8.85h-3.52v-8.18q0-1.1-.6-1.64t-1.5-.54q-.65 0-1.13.3-.49.27-.75.79-.27.52-.27 1.2v8.07h-3.39v-8.27q0-.95-.58-1.52-.56-.57-1.47-.57-.6 0-1.1.28t-.8.83q-.28.54-.28 1.32v7.93z"/>
    <path id="garage" fill="#131e24" d="M477.23 280.78h182.68V501.3H477.23z" fill-rule="evenodd"/>
    <path fill="#fff" pointer-events="none" d="M535.49 399.82q-2.44 0-4.3-1.08-1.84-1.1-2.87-3.1t-1.03-4.76q0-2.84 1.07-4.84 1.08-2.02 2.9-3.08 1.85-1.08 4.15-1.08 1.48 0 2.75.44 1.27.42 2.25 1.22 1 .78 1.63 1.86.62 1.06.8 2.34h-3.62q-.18-.6-.53-1.1-.33-.5-.81-.85-.47-.36-1.08-.53-.6-.2-1.33-.2-1.34 0-2.37.68-1.03.67-1.61 1.97-.58 1.28-.58 3.12 0 1.86.56 3.16.58 1.3 1.61 1.99 1.03.67 2.44.67 1.27 0 2.16-.46.9-.46 1.39-1.3.5-.85.5-2l.75.1h-4.55v-2.72h7.27v2.19q0 2.3-.99 3.95-.97 1.64-2.67 2.53-1.69.88-3.9.88zm13.85.03q-1.23 0-2.23-.44-.99-.45-1.56-1.33-.57-.87-.57-2.17 0-1.1.41-1.83.4-.73 1.1-1.17.7-.45 1.57-.68.9-.24 1.88-.33l1.83-.22q.7-.1 1.01-.31.33-.22.33-.64v-.07q0-.56-.24-.93-.23-.4-.7-.6-.45-.22-1.1-.22-.7 0-1.2.22-.5.2-.82.55-.32.33-.47.75l-3.22-.53q.34-1.14 1.12-1.94.79-.8 1.96-1.22t2.62-.42q1.06 0 2.05.25 1 .25 1.8.78t1.25 1.38q.46.84.46 2.03v8.82h-3.32v-1.8h-.13q-.31.6-.84 1.07-.52.45-1.27.73-.75.27-1.72.27m1-2.48q.83 0 1.46-.33.62-.33.97-.9.35-.56.35-1.24v-1.42q-.14.12-.46.21-.32.1-.7.18l-.76.12-.67.08q-.64.1-1.14.31-.48.2-.77.56-.26.35-.26.88 0 .5.25.86.26.34.7.51.44.18 1.03.18m9.28 2.21v-13.1h3.4v2.3h.15q.36-1.23 1.2-1.85.86-.63 1.95-.63.27 0 .58.03.31.04.56.1v3.14q-.23-.1-.68-.14-.44-.05-.85-.05-.8 0-1.43.36-.64.34-1 .95t-.36 1.44v7.45zm13.1.27q-1.23 0-2.23-.44-.99-.45-1.56-1.33-.57-.87-.57-2.17 0-1.1.4-1.83.42-.73 1.1-1.17.7-.45 1.58-.68.9-.24 1.88-.33l1.82-.22q.7-.1 1.02-.31.33-.22.33-.64v-.07q0-.56-.24-.93-.23-.4-.7-.6-.45-.22-1.1-.22-.7 0-1.2.22-.5.2-.82.55-.32.33-.47.75l-3.22-.53q.34-1.14 1.12-1.94t1.96-1.22q1.17-.42 2.62-.42 1.06 0 2.05.25 1 .25 1.8.78t1.25 1.38q.46.84.46 2.03v8.82h-3.32v-1.8h-.13q-.31.6-.84 1.07-.52.45-1.27.73-.75.27-1.72.27m1-2.48q.83 0 1.46-.33.62-.33.96-.9.36-.56.36-1.24v-1.42q-.14.12-.46.21-.32.1-.7.18l-.76.12-.67.08q-.64.1-1.14.31-.48.2-.77.56-.26.35-.26.88 0 .5.25.86.26.34.7.51.44.18 1.03.18m15.1 7.4q-1.63 0-2.85-.42t-1.99-1.16q-.76-.71-1.04-1.64l3.01-.84q.17.36.52.7.34.36.9.58.58.22 1.43.22 1.36 0 2.12-.63.77-.6.77-1.9v-2.42h-.27q-.23.53-.69 1.03-.43.48-1.17.8-.72.3-1.78.3-1.47 0-2.69-.68-1.2-.7-1.92-2.11-.72-1.42-.72-3.6 0-2.21.74-3.7.73-1.48 1.93-2.23 1.22-.75 2.68-.75 1.1 0 1.84.37.75.36 1.22.93.47.54.7 1.06h.14v-2.2h3.47v13q0 1.78-.83 2.95-.8 1.17-2.25 1.75-1.42.6-3.28.6zm.07-8.04q.9 0 1.52-.44.64-.46.96-1.28.33-.85.33-2.02t-.33-2.03q-.32-.88-.96-1.34-.63-.49-1.52-.49-.94 0-1.56.5-.63.5-.96 1.38-.3.86-.3 1.98 0 1.14.3 1.99.33.82.96 1.3.64.45 1.56.45m15.2 3.12q-2 0-3.46-.83-1.45-.83-2.23-2.33-.78-1.51-.78-3.59 0-2.03.76-3.55.78-1.53 2.19-2.37 1.42-.86 3.34-.86 1.29 0 2.4.4 1.12.41 1.96 1.24.85.83 1.32 2.08.46 1.23.46 2.92v.98h-11v-2.2h9.29l-1.64.6q0-1.04-.32-1.79-.31-.75-.92-1.17-.6-.42-1.53-.42-.9 0-1.55.42-.62.42-.95 1.16-.33.72-.33 1.64v1.56q0 1.13.38 1.9.37.77 1.06 1.16.69.4 1.6.4.62 0 1.12-.18.51-.19.87-.53t.55-.84l3.19.6q-.33 1.07-1.11 1.88t-1.97 1.27q-1.17.45-2.7.45"/>
    <path fill="#282828" d="M297.1 90.2h182.68v31.47H297.1zm-6.37 309.77h186.64v31.47H290.73zM688.16 25.42V501.6H658.8V25.4z" fill-rule="evenodd"/>
    <path fill="#282828" d="M469.62 20.13h218.55V51.6H469.62z" fill-rule="evenodd"/>
    <path fill="#282828" d="M450.4 121.06V20.15h29.36v100.91z" fill-rule="evenodd"/>
    <path fill="#1c4587" id="stairs" d="M300.83 276.57h127.25v43.56H300.83z" fill-rule="evenodd"/>
    <path fill="#fff" pointer-events="none" d="M338.3 307.16q-2.1 0-3.65-.64-1.55-.66-2.43-1.92-.85-1.27-.9-3.13h3.48q.07.9.52 1.49.47.57 1.22.87.76.3 1.73.3.95 0 1.66-.27.72-.28 1.1-.78.41-.51.41-1.19 0-.59-.36-1-.36-.4-1.03-.68-.65-.3-1.62-.52l-1.92-.48q-2.22-.55-3.47-1.7t-1.25-3.05q0-1.58.84-2.77.86-1.19 2.33-1.84 1.48-.66 3.39-.66 1.94 0 3.37.67 1.44.66 2.25 1.85.82 1.17.83 2.7h-3.45q-.1-1.05-.9-1.63-.8-.57-2.13-.57-.9 0-1.56.26-.64.25-.99.72-.33.45-.33 1.03 0 .64.4 1.08.38.42 1.03.69.64.26 1.37.44l1.58.39q1.1.25 2.05.67t1.67 1.03q.72.6 1.1 1.45.4.85.4 1.96 0 1.57-.8 2.76-.8 1.17-2.31 1.83-1.5.64-3.63.64m15.73-13.38v2.7h-7.76v-2.7zm-5.95-3.1h3.52v12.39q0 .6.26.92.28.3.92.3.2 0 .57-.05.36-.06.54-.11l.52 2.64q-.6.17-1.17.23-.58.08-1.11.08-1.97 0-3.02-.95-1.03-.97-1.03-2.77zm12.02 16.48q-1.24 0-2.24-.44-.98-.45-1.56-1.33-.56-.87-.56-2.17 0-1.1.4-1.83t1.1-1.17q.7-.45 1.57-.69.9-.23 1.88-.32l1.83-.22q.7-.1 1.01-.31.33-.22.33-.65v-.06q0-.56-.23-.94-.24-.39-.7-.59-.46-.22-1.12-.22-.68 0-1.18.22-.5.2-.83.55-.31.33-.47.75l-3.22-.53q.35-1.14 1.13-1.94t1.95-1.22 2.62-.42q1.07 0 2.05.25 1 .25 1.8.78t1.25 1.37q.47.85.47 2.04v8.82h-3.33v-1.8h-.13q-.3.6-.84 1.07-.52.45-1.27.73-.75.27-1.71.27m1-2.48q.82 0 1.45-.33.62-.33.97-.9.36-.56.36-1.24v-1.43q-.14.13-.47.22-.31.1-.7.18l-.75.12-.68.08q-.64.1-1.14.31-.48.2-.76.56-.27.35-.27.88 0 .5.25.86.27.34.7.51.44.18 1.04.18m9.27 2.21v-13.1h3.52v13.1zm1.77-14.8q-.8 0-1.36-.54-.56-.53-.56-1.28t.56-1.27q.56-.53 1.36-.53t1.36.53q.56.52.56 1.27t-.56 1.28-1.36.53zm4.74 14.8v-13.1h3.4v2.3h.14q.36-1.23 1.2-1.85.87-.63 1.96-.63.27 0 .58.03.31.04.56.1v3.14q-.23-.1-.69-.14-.43-.05-.84-.05-.8 0-1.44.36-.64.34-1 .95t-.36 1.44v7.45zm14.97.27q-1.57 0-2.8-.45-1.21-.46-2-1.32-.76-.87-.98-2.09l3.27-.56q.25.92.89 1.37.66.46 1.73.46 1 0 1.58-.38.6-.37.6-.97 0-.51-.43-.84-.42-.33-1.26-.5l-2.27-.47q-1.9-.4-2.84-1.31-.94-.94-.94-2.4 0-1.27.69-2.18.7-.9 1.92-1.4 1.23-.5 2.9-.5 1.55 0 2.68.45 1.14.42 1.84 1.2t.94 1.84l-3.11.57q-.2-.68-.78-1.1-.56-.44-1.52-.44-.87 0-1.47.38-.57.36-.57.95 0 .5.37.85.4.34 1.31.53l2.36.47q1.9.37 2.83 1.25.92.87.92 2.28 0 1.3-.75 2.26t-2.07 1.5q-1.32.55-3.04.55"/>
    <path fill="#282828" d="M300.83 260.8h127.25v15.77H300.83zm0 59.33h127.25v15.78H300.83zM479.76 141.1v72.31h-15.78V141.1zM451.6 501.6V399.96h26.97V501.6zM300.83 89.94v341.51h-31.5V89.95z" fill-rule="evenodd"/>
  </g>
</svg>
